<?xml version="1.0" encoding="UTF-8"?>
<svg width="11339px" height="3118px" viewBox="0 0 11339 3118" version="1.1" xmlns="http://www.w3.org/2000/svg" xmlns:xlink="http://www.w3.org/1999/xlink">
    <title>Banner</title>
    <g id="Banner" stroke="none" stroke-width="1" fill="none" fill-rule="evenodd">
        <rect fill="#FFFFFF" x="0" y="0" width="11339" height="3118"></rect>
        <g id="Group-35" transform="translate(2574.000000, 762.000000)">
            <path d="M2719.22366,559.469592 L2967.20453,966.722726 L3209.13709,559.469592 L3373.44961,559.469592 L3375.46572,1265.10621 L3192.0002,1265.10621 L3189.98409,891.118802 L3008.53468,1195.5506 L2919.82607,1195.5506 L2739.38471,901.199325 L2739.38471,1265.10621 L2554.91114,1265.10621 L2554.91114,559.469592 L2719.22366,559.469592 Z M4086.01459,559.469592 L4086.01459,713.701596 L3730.17212,713.701596 L3730.17212,832.651768 L4043.67639,832.651768 L4043.67639,981.84351 L3730.17212,981.84351 L3730.17212,1110.87421 L4099.11927,1110.87421 L4099.11927,1265.10621 L3532.59387,1265.10621 L3532.59387,559.469592 L4086.01459,559.469592 Z M4791.5232,559.469592 L4791.5232,717.733805 L4575.80001,717.733805 L4575.80001,1265.10621 L4376.20565,1265.10621 L4376.20565,717.733805 L4159.4744,717.733805 L4159.4744,559.469592 L4791.5232,559.469592 Z M5270.22004,559.469592 L5582.71626,1265.10621 L5375.05748,1265.10621 L5319.61461,1128.0111 L5021.23112,1128.0111 L4965.78824,1265.10621 L4762.16168,1265.10621 L5073.64984,559.469592 L5270.22004,559.469592 Z M5854.76238,559.469592 L5854.76238,1106.842 L6191.45185,1106.842 L6191.45185,1265.10621 L5655.16802,1265.10621 L5655.16802,559.469592 L5854.76238,559.469592 Z M5170.42286,755.03174 L5079.69816,980.835458 L5261.14757,980.835458 L5170.42286,755.03174 Z M1884.05126,-7.77163223e-10 C1958.64713,-7.77163223e-10 2025.68261,15.7928195 2085.1577,47.3784586 C2144.63278,78.9640977 2191.33921,122.646364 2225.27697,178.425259 C2259.21473,234.204154 2276.18361,297.039414 2276.18361,366.931041 C2276.18361,436.822668 2259.21473,499.657929 2225.27697,555.436823 C2191.33921,611.215718 2144.63278,654.897985 2085.1577,686.483624 C2025.68261,718.069263 1958.64713,733.862082 1884.05126,733.862082 C1809.45539,733.862082 1742.41991,718.069263 1682.94482,686.483624 C1623.46974,654.897985 1576.76331,611.215718 1542.82555,555.436823 C1508.88779,499.657929 1491.91891,436.822668 1491.91891,366.931041 C1491.91891,297.039414 1508.88779,234.204154 1542.82555,178.425259 C1576.76331,122.646364 1623.46974,78.9640977 1682.94482,47.3784586 C1742.41991,15.7928195 1809.45539,-7.77163223e-10 1884.05126,-7.77163223e-10 Z M322.576739,18.6489864 L324.489519,18.6521618 C387.52807,18.8617358 442.333354,29.4452266 488.905371,50.4026342 C535.947812,71.5717327 572.237695,101.813302 597.77502,141.127342 C623.312346,180.441382 636.081008,226.64378 636.081008,279.734535 C636.081008,332.82529 623.312346,378.859679 597.77502,417.837702 C572.237695,456.815724 535.947812,486.889285 488.905371,508.058383 C442.333354,529.015791 387.52807,539.599282 324.489519,539.808856 L322.576739,539.812031 L199.594358,539.812031 L199.594358,724.285604 L2.41107045e-09,724.285604 L2.41107045e-09,18.6489864 L322.576739,18.6489864 Z M1087.18518,18.6489864 L1089.09796,18.6521618 C1152.13651,18.8617358 1206.9418,29.4452266 1253.51381,50.4026342 C1300.55625,71.5717327 1336.84614,101.813302 1362.38346,141.127342 C1387.92079,180.441382 1400.68945,226.64378 1400.68945,279.734535 C1400.68945,330.809185 1388.76083,375.331496 1364.90359,413.301466 C1341.28493,450.891737 1307.62168,480.413406 1263.91384,501.866472 L1262.58628,502.514096 L1414.80218,724.285604 L1201.09509,724.285604 L1073.07245,536.787874 L964.2028,536.787874 L964.2028,724.285604 L764.608442,724.285604 L764.608442,18.6489864 L1087.18518,18.6489864 Z M1884.05126,165.320579 C1848.43341,165.320579 1816.17574,173.721015 1787.27824,190.521887 C1758.38074,207.322759 1735.53155,231.011988 1718.73068,261.589575 C1701.92981,292.167161 1693.52937,327.280984 1693.52937,366.931041 C1693.52937,406.581099 1701.92981,441.694921 1718.73068,472.272508 C1735.53155,502.850094 1758.38074,526.539324 1787.27824,543.340196 C1816.17574,560.141067 1848.43341,568.541503 1884.05126,568.541503 C1919.66911,568.541503 1951.92678,560.141067 1980.82428,543.340196 C2009.72178,526.539324 2032.57097,502.850094 2049.37184,472.272508 C2066.17271,441.694921 2074.57315,406.581099 2074.57315,366.931041 C2074.57315,327.280984 2066.17271,292.167161 2049.37184,261.589575 C2032.57097,231.011988 2009.72178,207.322759 1980.82428,190.521887 C1951.92678,173.721015 1919.66911,165.320579 1884.05126,165.320579 Z M310.480112,175.905147 L199.594358,175.905147 L199.594358,382.555871 L310.480112,382.555871 C351.474239,382.555871 382.387843,373.651409 403.220924,355.842484 C424.054005,338.03356 434.470546,312.664244 434.470546,279.734535 C434.470546,246.804826 424.054005,221.267501 403.220924,203.122559 C382.387843,184.977618 351.474239,175.905147 310.480112,175.905147 Z M1075.08855,175.905147 L964.2028,175.905147 L964.2028,382.555871 L1075.08855,382.555871 C1116.08268,382.555871 1146.99629,373.651409 1167.82937,355.842484 C1188.66245,338.03356 1199.07899,312.664244 1199.07899,279.734535 C1199.07899,246.804826 1188.66245,221.267501 1167.82937,203.122559 C1146.99629,184.977618 1116.08268,175.905147 1075.08855,175.905147 Z" id="Combined-Shape" fill="#191919" fill-rule="nonzero"></path>
            <rect id="Rectangle" fill="#FB5700" x="0" y="1007.04527" width="2275.17634" height="261.08581"></rect>
            <rect id="Rectangle-Copy-32" fill="#FB5700" x="2554.91114" y="18.6489864" width="3636.55235" height="261.08581"></rect>
        </g>
        <text id="Magjistralja-Kaçanik" font-family="Gilroy-SemiBold" font-size="183" font-weight="normal" line-spacing="270" letter-spacing="10" fill="#191919">
            <tspan x="937.163" y="2646">Magjistralja Kaçanik - Ferizaj     |     Mob 044 224 901, 049 757 375     |     Email pro.metal@outlook.com</tspan>
        </text>
    </g>
</svg>