<?xml version="1.0" encoding="UTF-8"?>
<svg width="1952px" height="677px" viewBox="0 0 1952 677" version="1.1" xmlns="http://www.w3.org/2000/svg" xmlns:xlink="http://www.w3.org/1999/xlink">
    <title>Prometal White Logotype</title>
    <g id="Prometal-White-Logotype" stroke="none" stroke-width="1" fill="none" fill-rule="evenodd">
        <rect fill="#FFFFFF" x="0" y="0" width="1952" height="677"></rect>
        <g id="Group-35-Copy" transform="translate(195.000000, 179.000000)">
            <path d="M685.964002,141.1344 L748.520808,243.869969 L809.551839,141.1344 L851.002081,141.1344 L851.510673,319.141573 L805.228808,319.141573 L804.720216,224.797771 L758.946943,301.595152 L736.568898,301.595152 L691.049921,227.340731 L691.049921,319.141573 L644.51376,319.141573 L644.51376,141.1344 L685.964002,141.1344 Z M1030.75703,141.1344 L1030.75703,180.041682 L940.99056,180.041682 L940.99056,210.048606 L1020.0766,210.048606 L1020.0766,247.684408 L940.99056,247.684408 L940.99056,280.234291 L1034.06288,280.234291 L1034.06288,319.141573 L891.148552,319.141573 L891.148552,141.1344 L1030.75703,141.1344 Z M1208.73192,141.1344 L1208.73192,181.058866 L1154.31258,181.058866 L1154.31258,319.141573 L1103.96198,319.141573 L1103.96198,181.058866 L1049.28835,181.058866 L1049.28835,141.1344 L1208.73192,141.1344 Z M1329.49021,141.1344 L1408.32195,319.141573 L1355.93699,319.141573 L1341.95071,284.557323 L1266.6791,284.557323 L1252.69283,319.141573 L1201.32504,319.141573 L1279.90249,141.1344 L1329.49021,141.1344 Z M1476.94957,141.1344 L1476.94957,279.217107 L1561.88442,279.217107 L1561.88442,319.141573 L1426.59897,319.141573 L1426.59897,141.1344 L1476.94957,141.1344 Z M1304.31491,190.467817 L1281.42827,247.430112 L1327.20154,247.430112 L1304.31491,190.467817 Z M475.279529,-1.35287337e-10 C494.09743,-1.35287337e-10 511.008112,3.98397007 526.011574,11.9519102 C541.015035,19.9198504 552.797415,30.939342 561.358712,45.0103853 C569.92001,59.0814285 574.200658,74.9325434 574.200658,92.5637301 C574.200658,110.194917 569.92001,126.046032 561.358712,140.117075 C552.797415,154.188118 541.015035,165.20761 526.011574,173.17555 C511.008112,181.14349 494.09743,185.12746 475.279529,185.12746 C456.461628,185.12746 439.550947,181.14349 424.547485,173.17555 C409.544023,165.20761 397.761643,154.188118 389.200346,140.117075 C380.639049,126.046032 376.3584,110.194917 376.3584,92.5637301 C376.3584,74.9325434 380.639049,59.0814285 389.200346,45.0103853 C397.761643,30.939342 409.544023,19.9198504 424.547485,11.9519102 C439.550947,3.98397007 456.461628,-1.35287337e-10 475.279529,-1.35287337e-10 Z M81.3747078,4.70448 L82.3581056,4.70781624 C98.0501046,4.81457607 111.708583,7.48357158 123.333542,12.7148028 C135.200686,18.055018 144.355341,25.6838969 150.797505,35.6014394 C157.23967,45.5189819 160.460752,57.1742135 160.460752,70.5671341 C160.460752,83.9600548 157.23967,95.5729037 150.797505,105.405681 C144.355341,115.238458 135.200686,122.824954 123.333542,128.16517 C111.708583,133.396401 98.0501046,136.065396 82.3581056,136.172156 L81.3747078,136.175492 L50.3506005,136.175492 L50.3506005,182.711653 L4.25671942e-10,182.711653 L4.25671942e-10,4.70448 L81.3747078,4.70448 Z M274.258388,4.70448 L275.241786,4.70781624 C290.933785,4.81457607 304.592263,7.48357158 316.217222,12.7148028 C328.084366,18.055018 337.239021,25.6838969 343.681185,35.6014394 C350.12335,45.5189819 353.344432,57.1742135 353.344432,70.5671341 C353.344432,83.4514629 350.335263,94.6828679 344.316925,104.261349 C338.421411,113.644351 330.045001,121.034503 319.187697,126.431805 L318.505885,126.766542 L356.904575,182.711653 L302.993832,182.711653 L270.698244,135.412604 L243.23428,135.412604 L243.23428,182.711653 L192.88368,182.711653 L192.88368,4.70448 L274.258388,4.70448 Z M475.279529,41.7045378 C466.294405,41.7045378 458.156934,43.8236708 450.867117,48.0619368 C443.577299,52.3002028 437.813257,58.2761579 433.574991,65.9898021 C429.336725,73.7034463 427.217592,82.5614223 427.217592,92.5637301 C427.217592,102.566038 429.336725,111.424014 433.574991,119.137658 C437.813257,126.851302 443.577299,132.827257 450.867117,137.065523 C458.156934,141.30379 466.294405,143.422923 475.279529,143.422923 C484.264653,143.422923 492.402124,141.30379 499.691942,137.065523 C506.981759,132.827257 512.745801,126.851302 516.984067,119.137658 C521.222333,111.424014 523.341466,102.566038 523.341466,92.5637301 C523.341466,82.5614223 521.222333,73.7034463 516.984067,65.9898021 C512.745801,58.2761579 506.981759,52.3002028 499.691942,48.0619368 C492.402124,43.8236708 484.264653,41.7045378 475.279529,41.7045378 Z M78.3231563,44.3746501 L50.3506005,44.3746501 L50.3506005,96.5053223 L78.3231563,96.5053223 C88.6645254,96.5053223 96.4629349,94.2590413 101.718385,89.7664793 C106.973835,85.2739173 109.60156,78.8741356 109.60156,70.5671341 C109.60156,62.2601327 106.973835,55.8179683 101.718385,51.240641 C96.4629349,46.6633137 88.6645254,44.3746501 78.3231563,44.3746501 Z M271.206836,44.3746501 L243.23428,44.3746501 L243.23428,96.5053223 L271.206836,96.5053223 C281.548205,96.5053223 289.346615,94.2590413 294.602065,89.7664793 C299.857515,85.2739173 302.48524,78.8741356 302.48524,70.5671341 C302.48524,62.2601327 299.857515,55.8179683 294.602065,51.240641 C289.346615,46.6633137 281.548205,44.3746501 271.206836,44.3746501 Z" id="Combined-Shape" fill="#191919" fill-rule="nonzero"></path>
            <rect id="Rectangle" fill="#FB5700" x="0" y="254.04192" width="573.94656" height="65.86272"></rect>
            <rect id="Rectangle-Copy-32" fill="#FB5700" x="644.51376" y="4.70448" width="917.3736" height="65.86272"></rect>
        </g>
    </g>
</svg>