<?xml version="1.0" encoding="UTF-8"?>
<svg width="240px" height="240px" viewBox="0 0 240 240" version="1.1" xmlns="http://www.w3.org/2000/svg" xmlns:xlink="http://www.w3.org/1999/xlink">
    <title>Prometal White Icon</title>
    <g id="Prometal" stroke="none" stroke-width="1" fill="none" fill-rule="evenodd">
        <g id="Prometal-White-Icon">
            <rect id="Rectangle-Copy-4" fill="#FFFFFF" x="0" y="0" width="240" height="240"></rect>
            <g id="Group-21-Copy" transform="translate(68.000000, 83.000000)">
                <path d="M12.884,45 L12.884,33.471 L20.57,33.471 C24.56,33.471 28.025,32.8095 30.965,31.4865 C33.905,30.1635 36.173,28.284 37.769,25.848 C39.365,23.412 40.163,20.535 40.163,17.217 C40.163,13.899 39.365,11.0115 37.769,8.5545 C36.173,6.0975 33.905,4.2075 30.965,2.8845 C28.025,1.5615 24.56,0.9 20.57,0.9 L20.57,0.9 L0.41,0.9 L0.41,45 L12.884,45 Z M19.814,23.643 L12.884,23.643 L12.884,10.728 L19.814,10.728 C22.376,10.728 24.308,11.295 25.61,12.429 C26.912,13.563 27.563,15.159 27.563,17.217 C27.563,19.275 26.912,20.8605 25.61,21.9735 C24.308,23.0865 22.376,23.643 19.814,23.643 L19.814,23.643 Z" id="P" fill="#191919" fill-rule="nonzero"></path>
                <polygon id="M" fill="#191919" fill-rule="nonzero" points="63.939 73 63.939 50.257 75.216 68.653 80.76 68.653 92.1 49.627 92.226 73 103.692 73 103.566 28.9 93.297 28.9 78.177 54.352 62.679 28.9 52.41 28.9 52.41 73"></polygon>
                <rect id="Rectangle-Copy-33" fill="#F95B00" x="0" y="57" width="40" height="16"></rect>
                <rect id="Rectangle-Copy-34" fill="#F95B00" x="52" y="1" width="52" height="16"></rect>
            </g>
        </g>
    </g>
</svg>